<svg version="1.1" width="1000" height="1000" 
                    xmlns="http://www.w3.org/2000/svg">
            <radialGradient id="Hydrogen" cx="-50%" cy="-50%" r="220%" fx="20%" fy="20%">
            <stop offset="0%" stop-color="#006d8f"/>
            <stop offset="50%" stop-color="#0056d6"/>
            <stop offset="100%" stop-color="#53d5fd"/>
            </radialGradient>
            <radialGradient id="Oxygen" cx="-50%" cy="-50%" r="220%" fx="20%" fy="20%">
            <stop offset="0%" stop-color="#caf0fe"/>
            <stop offset="50%" stop-color="#e0edd4"/>
            <stop offset="100%" stop-color="#c0c0c0"/>
            </radialGradient>
            <radialGradient id="Carbon" cx="-50%" cy="-50%" r="220%" fx="20%" fy="20%">
            <stop offset="0%" stop-color="#232323"/>
            <stop offset="50%" stop-color="#929292"/>
            <stop offset="100%" stop-color="#d6d6d6"/>
            </radialGradient>
            <radialGradient id="Nitrogen" cx="-50%" cy="-50%" r="220%" fx="20%" fy="20%">
            <stop offset="0%" stop-color="#b1dd8c"/>
            <stop offset="50%" stop-color="#96d35f"/>
            <stop offset="100%" stop-color="#ebf38f"/>
            </radialGradient>
            <radialGradient id="Boron" cx="-50%" cy="-50%" r="220%" fx="20%" fy="20%">
            <stop offset="0%" stop-color="#7c2a00"/>
            <stop offset="50%" stop-color="#5c0700"/>
            <stop offset="100%" stop-color="#785700"/>
            </radialGradient> <polygon points="505.00,408.84 495.00,426.16 566.45,467.41 576.45,450.09" fill="green"/>
 <polygon points="561.45,541.25 581.45,541.25 581.45,458.75 561.45,458.75" fill="green"/>
 <polygon points="495.00,573.84 505.00,591.16 576.45,549.91 566.45,532.59" fill="green"/>
 <polygon points="423.55,450.09 433.55,467.41 505.00,426.16 495.00,408.84" fill="green"/>
 <polygon points="433.55,532.59 423.55,549.91 495.00,591.16 505.00,573.84" fill="green"/>
 <polygon points="438.55,458.75 418.55,458.75 418.55,541.25 438.55,541.25" fill="green"/>
 <circle cx="571.45" cy="458.75" r="25" fill="url(#Carbon)"/>
 <circle cx="500.00" cy="417.50" r="25" fill="url(#Carbon)"/>
 <circle cx="571.45" cy="541.25" r="25" fill="url(#Carbon)"/>
 <circle cx="500.00" cy="582.50" r="25" fill="url(#Carbon)"/>
 <circle cx="428.55" cy="458.75" r="25" fill="url(#Carbon)"/>
 <circle cx="428.55" cy="541.25" r="25" fill="url(#Carbon)"/>
</svg>