<svg version="1.1" width="1000" height="1000" 
                    xmlns="http://www.w3.org/2000/svg">
            <radialGradient id="Hydrogen" cx="-50%" cy="-50%" r="220%" fx="20%" fy="20%">
            <stop offset="0%" stop-color="#00a3d7"/>
            <stop offset="50%" stop-color="#0042aa"/>
            <stop offset="100%" stop-color="#74a7fe"/>
            </radialGradient>
            <radialGradient id="Oxygen" cx="-50%" cy="-50%" r="220%" fx="20%" fy="20%">
            <stop offset="0%" stop-color="#f4a4c0"/>
            <stop offset="50%" stop-color="#ffd9a8"/>
            <stop offset="100%" stop-color="#cce8b5"/>
            </radialGradient>
            <radialGradient id="Carbon" cx="-50%" cy="-50%" r="220%" fx="20%" fy="20%">
            <stop offset="0%" stop-color="#232323"/>
            <stop offset="50%" stop-color="#606060"/>
            <stop offset="100%" stop-color="#c0c0c0"/>
            </radialGradient>
            <radialGradient id="Nitrogen" cx="-50%" cy="-50%" r="220%" fx="20%" fy="20%">
            <stop offset="0%" stop-color="#77bb41"/>
            <stop offset="50%" stop-color="#d29d00"/>
            <stop offset="100%" stop-color="#9aa60e"/>
            </radialGradient> <circle cx="746.92" cy="621.24" r="40" fill="url(#Hydrogen)"/>
 <circle cx="351.16" cy="939.75" r="40" fill="url(#Hydrogen)"/>
 <polygon points="711.06,611.55 711.24,631.55 747.01,631.24 746.83,611.24" fill="green"/>
 <circle cx="195.25" cy="853.88" r="40" fill="url(#Hydrogen)"/>
 <circle cx="381.88" cy="233.23" r="40" fill="url(#Hydrogen)"/>
 <circle cx="206.42" cy="203.29" r="40" fill="url(#Hydrogen)"/>
 <polygon points="298.80,859.20 283.26,871.78 343.39,946.04 358.93,933.46" fill="green"/>
 <polygon points="289.83,875.42 292.23,855.56 196.45,843.95 194.05,863.81" fill="green"/>
 <polygon points="286.15,244.50 290.53,264.02 384.07,242.99 379.69,223.47" fill="green"/>
 <polygon points="283.06,262.75 293.62,245.77 211.70,194.80 201.14,211.78" fill="green"/>
 <circle cx="557.61" cy="839.59" r="30" fill="url(#Oxygen)"/>
 <polygon points="504.96,729.54 487.68,739.62 548.97,844.63 566.25,834.55" fill="green"/>
 <circle cx="291.03" cy="865.49" r="35" fill="url(#Carbon)"/>
 <circle cx="496.32" cy="734.58" r="35" fill="url(#Carbon)"/>
 <circle cx="711.15" cy="621.55" r="35" fill="url(#Carbon)"/>
 <polygon points="370.47,741.99 352.95,732.35 282.27,860.67 299.79,870.31" fill="green"/>
 <polygon points="361.52,727.17 361.90,747.17 496.51,744.58 496.13,724.58" fill="green"/>
 <polygon points="573.28,623.92 556.06,613.76 487.71,729.50 504.93,739.66" fill="green"/>
 <polygon points="564.85,608.84 564.49,628.84 710.97,631.55 711.33,611.55" fill="green"/>
 <circle cx="361.71" cy="737.17" r="25" fill="url(#Nitrogen)"/>
 <circle cx="564.67" cy="618.84" r="25" fill="url(#Nitrogen)"/>
 <polygon points="298.48,613.50 281.38,623.86 353.16,742.35 370.26,731.99" fill="green"/>
 <polygon points="509.20,495.45 491.62,504.97 555.88,623.60 573.46,614.08" fill="green"/>
 <circle cx="500.41" cy="500.21" r="35" fill="url(#Carbon)"/>
 <circle cx="289.93" cy="618.68" r="35" fill="url(#Carbon)"/>
 <polygon points="491.85,495.04 508.97,505.38 572.00,401.16 554.88,390.82" fill="green"/>
 <polygon points="359.41,488.29 359.13,508.29 500.27,510.21 500.55,490.21" fill="green"/>
 <polygon points="367.94,503.28 350.60,493.30 281.26,613.69 298.60,623.67" fill="green"/>
 <polygon points="287.73,628.44 292.13,608.92 161.86,579.56 157.46,599.08" fill="green"/>
 <circle cx="563.44" cy="395.99" r="30" fill="url(#Oxygen)"/>
 <circle cx="359.27" cy="498.29" r="35" fill="url(#Carbon)"/>
 <circle cx="159.66" cy="589.32" r="25" fill="url(#Nitrogen)"/>
 <polygon points="352.05,505.21 366.49,491.37 270.92,391.75 256.48,405.59" fill="green"/>
 <polygon points="149.74,590.56 169.58,588.08 153.38,458.23 133.54,460.71" fill="green"/>
 <circle cx="263.70" cy="398.67" r="25" fill="url(#Nitrogen)"/>
 <polygon points="253.84,396.99 273.56,400.35 298.20,255.94 278.48,252.58" fill="green"/>
 <polygon points="268.21,407.59 259.19,389.75 138.95,450.55 147.97,468.39" fill="green"/>
 <circle cx="288.34" cy="254.26" r="35" fill="url(#Carbon)"/>
 <circle cx="143.46" cy="459.47" r="35" fill="url(#Carbon)"/>
 <polygon points="138.76,468.30 148.16,450.64 52.84,399.88 43.44,417.54" fill="green"/>
 <circle cx="48.14" cy="408.71" r="40" fill="url(#Hydrogen)"/>
 <polygon points="720.47,617.93 701.83,625.17 736.78,715.31 755.42,708.07" fill="green"/>
 <polygon points="701.98,617.56 720.32,625.54 758.57,537.72 740.23,529.74" fill="green"/>
 <circle cx="746.10" cy="711.69" r="40" fill="url(#Hydrogen)"/>
 <polygon points="299.92,870.08 282.14,860.90 265.19,893.72 282.97,902.90" fill="green"/>
 <circle cx="749.40" cy="533.73" r="40" fill="url(#Hydrogen)"/>
 <polygon points="278.51,252.40 298.17,256.12 304.89,220.67 285.23,216.95" fill="green"/>
 <circle cx="274.08" cy="898.31" r="40" fill="url(#Hydrogen)"/>
 <circle cx="295.06" cy="218.81" r="40" fill="url(#Hydrogen)"/>
</svg>