<svg version="1.1" width="1000" height="1000" 
                    xmlns="http://www.w3.org/2000/svg">
            <radialGradient id="Hydrogen" cx="-50%" cy="-50%" r="220%" fx="20%" fy="20%">
            <stop offset="0%" stop-color="#00a3d7"/>
            <stop offset="50%" stop-color="#0042aa"/>
            <stop offset="100%" stop-color="#74a7fe"/>
            </radialGradient>
            <radialGradient id="Oxygen" cx="-50%" cy="-50%" r="220%" fx="20%" fy="20%">
            <stop offset="0%" stop-color="#f4a4c0"/>
            <stop offset="50%" stop-color="#ffd9a8"/>
            <stop offset="100%" stop-color="#cce8b5"/>
            </radialGradient>
            <radialGradient id="Carbon" cx="-50%" cy="-50%" r="220%" fx="20%" fy="20%">
            <stop offset="0%" stop-color="#232323"/>
            <stop offset="50%" stop-color="#606060"/>
            <stop offset="100%" stop-color="#c0c0c0"/>
            </radialGradient>
            <radialGradient id="Nitrogen" cx="-50%" cy="-50%" r="220%" fx="20%" fy="20%">
            <stop offset="0%" stop-color="#77bb41"/>
            <stop offset="50%" stop-color="#d29d00"/>
            <stop offset="100%" stop-color="#9aa60e"/>
            </radialGradient> <polygon points="510.00,500.00 490.00,500.00 490.00,582.50 510.00,582.50" fill="green"/>
 <polygon points="495.00,491.34 505.00,508.66 576.45,467.41 566.45,450.09" fill="green"/>
 <polygon points="576.45,450.09 566.45,467.41 637.89,508.66 647.89,491.34" fill="green"/>
 <polygon points="495.00,508.66 505.00,491.34 433.55,450.09 423.55,467.41" fill="green"/>
 <polygon points="418.55,458.75 438.55,458.75 438.55,376.25 418.55,376.25" fill="green"/>
 <polygon points="433.55,467.41 423.55,450.09 352.11,491.34 362.11,508.66" fill="green"/>
 <polygon points="652.89,500.00 632.89,500.00 632.89,582.50 652.89,582.50" fill="green"/>
 <polygon points="637.89,491.34 647.89,508.66 719.34,467.41 709.34,450.09" fill="green"/>
 <circle cx="500.00" cy="582.50" r="35" fill="url(#Carbon)"/>
 <circle cx="500.00" cy="500.00" r="25" fill="url(#Nitrogen)"/>
 <circle cx="571.45" cy="458.75" r="35" fill="url(#Carbon)"/>
 <circle cx="428.55" cy="458.75" r="35" fill="url(#Carbon)"/>
 <circle cx="642.89" cy="500.00" r="35" fill="url(#Carbon)"/>
 <circle cx="428.55" cy="376.25" r="25" fill="url(#Nitrogen)"/>
 <circle cx="357.11" cy="500.00" r="25" fill="url(#Nitrogen)"/>
 <circle cx="642.89" cy="582.50" r="30" fill="url(#Oxygen)"/>
 <circle cx="714.34" cy="458.75" r="30" fill="url(#Oxygen)"/>
</svg>