<svg version="1.1" width="1000" height="1000" 
                    xmlns="http://www.w3.org/2000/svg">
            <radialGradient id="Hydrogen" cx="-50%" cy="-50%" r="220%" fx="20%" fy="20%">
            <stop offset="0%" stop-color="#006d8f"/>
            <stop offset="50%" stop-color="#0056d6"/>
            <stop offset="100%" stop-color="#53d5fd"/>
            </radialGradient>
            <radialGradient id="Oxygen" cx="-50%" cy="-50%" r="220%" fx="20%" fy="20%">
            <stop offset="0%" stop-color="#caf0fe"/>
            <stop offset="50%" stop-color="#e0edd4"/>
            <stop offset="100%" stop-color="#c0c0c0"/>
            </radialGradient>
            <radialGradient id="Carbon" cx="-50%" cy="-50%" r="220%" fx="20%" fy="20%">
            <stop offset="0%" stop-color="#232323"/>
            <stop offset="50%" stop-color="#929292"/>
            <stop offset="100%" stop-color="#d6d6d6"/>
            </radialGradient>
            <radialGradient id="Nitrogen" cx="-50%" cy="-50%" r="220%" fx="20%" fy="20%">
            <stop offset="0%" stop-color="#b1dd8c"/>
            <stop offset="50%" stop-color="#96d35f"/>
            <stop offset="100%" stop-color="#ebf38f"/>
            </radialGradient>
            <radialGradient id="Boron" cx="-50%" cy="-50%" r="220%" fx="20%" fy="20%">
            <stop offset="0%" stop-color="#7c2a00"/>
            <stop offset="50%" stop-color="#5c0700"/>
            <stop offset="100%" stop-color="#785700"/>
            </radialGradient> <polygon points="466.48,514.75 456.48,532.07 527.93,573.32 537.93,556.00" fill="green"/>
 <polygon points="451.48,523.41 471.48,523.41 471.48,440.91 451.48,440.91" fill="green"/>
 <polygon points="466.48,532.07 456.48,514.75 385.03,556.00 395.03,573.32" fill="green"/>
 <polygon points="527.93,556.00 537.93,573.32 609.37,532.07 599.37,514.75" fill="green"/>
 <polygon points="456.48,449.57 466.48,432.25 395.03,391.00 385.03,408.32" fill="green"/>
 <polygon points="385.03,573.32 395.03,556.00 323.58,514.75 313.58,532.07" fill="green"/>
 <polygon points="609.37,514.75 599.37,532.07 670.82,573.32 680.82,556.00" fill="green"/>
 <polygon points="594.37,523.41 614.37,523.41 614.37,440.91 594.37,440.91" fill="green"/>
 <polygon points="395.03,408.32 385.03,391.00 313.58,432.25 323.58,449.57" fill="green"/>
 <polygon points="670.82,556.00 680.82,573.32 752.27,532.07 742.27,514.75" fill="green"/>
 <polygon points="321.67,532.92 315.49,513.90 237.03,539.39 243.21,558.41" fill="green"/>
 <polygon points="183.54,476.28 199.72,488.04 248.21,421.30 232.03,409.54" fill="green"/>
 <polygon points="199.72,476.28 183.54,488.04 232.03,554.78 248.21,543.02" fill="green"/>
 <polygon points="243.21,405.91 237.03,424.93 315.49,450.42 321.67,431.40" fill="green"/>
 <polygon points="308.58,523.41 328.58,523.41 328.58,440.91 308.58,440.91" fill="green"/>
 <polygon points="466.48,514.75 456.48,532.07 527.93,573.32 537.93,556.00" fill="green"/>
 <polygon points="451.48,523.41 471.48,523.41 471.48,440.91 451.48,440.91" fill="green"/>
 <polygon points="466.48,532.07 456.48,514.75 385.03,556.00 395.03,573.32" fill="green"/>
 <polygon points="527.93,556.00 537.93,573.32 609.37,532.07 599.37,514.75" fill="green"/>
 <polygon points="456.48,449.57 466.48,432.25 395.03,391.00 385.03,408.32" fill="green"/>
 <polygon points="385.03,573.32 395.03,556.00 323.58,514.75 313.58,532.07" fill="green"/>
 <polygon points="609.37,514.75 599.37,532.07 670.82,573.32 680.82,556.00" fill="green"/>
 <polygon points="594.37,523.41 614.37,523.41 614.37,440.91 594.37,440.91" fill="green"/>
 <polygon points="395.03,408.32 385.03,391.00 313.58,432.25 323.58,449.57" fill="green"/>
 <polygon points="670.82,556.00 680.82,573.32 752.27,532.07 742.27,514.75" fill="green"/>
 <polygon points="321.67,532.92 315.49,513.90 237.03,539.39 243.21,558.41" fill="green"/>
 <polygon points="183.54,476.28 199.72,488.04 248.21,421.30 232.03,409.54" fill="green"/>
 <polygon points="199.72,476.28 183.54,488.04 232.03,554.78 248.21,543.02" fill="green"/>
 <polygon points="243.21,405.91 237.03,424.93 315.49,450.42 321.67,431.40" fill="green"/>
 <polygon points="308.58,523.41 328.58,523.41 328.58,440.91 308.58,440.91" fill="green"/>
 <circle cx="461.48" cy="523.41" r="25" fill="url(#Carbon)"/>
 <circle cx="532.93" cy="564.66" r="25" fill="url(#Carbon)"/>
 <circle cx="461.48" cy="440.91" r="25" fill="url(#Carbon)"/>
 <circle cx="390.03" cy="564.66" r="25" fill="url(#Carbon)"/>
 <circle cx="604.37" cy="523.41" r="25" fill="url(#Carbon)"/>
 <circle cx="390.03" cy="399.66" r="25" fill="url(#Carbon)"/>
 <circle cx="675.82" cy="564.66" r="22" fill="url(#Nitrogen)"/>
 <circle cx="604.37" cy="440.91" r="25" fill="url(#Carbon)"/>
 <circle cx="747.27" cy="523.41" r="25" fill="url(#Carbon)"/>
 <circle cx="318.58" cy="523.41" r="25" fill="url(#Carbon)"/>
 <circle cx="191.63" cy="482.16" r="25" fill="url(#Carbon)"/>
 <circle cx="318.58" cy="440.91" r="25" fill="url(#Carbon)"/>
 <circle cx="240.12" cy="548.90" r="30" fill="url(#Oxygen)"/>
 <circle cx="240.12" cy="415.42" r="30" fill="url(#Oxygen)"/>
 <circle cx="461.48" cy="523.41" r="25" fill="url(#Carbon)"/>
 <circle cx="532.93" cy="564.66" r="25" fill="url(#Carbon)"/>
 <circle cx="461.48" cy="440.91" r="25" fill="url(#Carbon)"/>
 <circle cx="390.03" cy="564.66" r="25" fill="url(#Carbon)"/>
 <circle cx="604.37" cy="523.41" r="25" fill="url(#Carbon)"/>
 <circle cx="390.03" cy="399.66" r="25" fill="url(#Carbon)"/>
 <circle cx="675.82" cy="564.66" r="22" fill="url(#Nitrogen)"/>
 <circle cx="604.37" cy="440.91" r="25" fill="url(#Carbon)"/>
 <circle cx="747.27" cy="523.41" r="25" fill="url(#Carbon)"/>
 <circle cx="318.58" cy="523.41" r="25" fill="url(#Carbon)"/>
 <circle cx="191.63" cy="482.16" r="25" fill="url(#Carbon)"/>
 <circle cx="318.58" cy="440.91" r="25" fill="url(#Carbon)"/>
 <circle cx="240.12" cy="548.90" r="30" fill="url(#Oxygen)"/>
 <circle cx="240.12" cy="415.42" r="30" fill="url(#Oxygen)"/>
</svg>