<svg version="1.1" width="1000" height="1000" 
                    xmlns="http://www.w3.org/2000/svg">
            <radialGradient id="Hydrogen" cx="-50%" cy="-50%" r="220%" fx="20%" fy="20%">
            <stop offset="0%" stop-color="#006d8f"/>
            <stop offset="50%" stop-color="#0056d6"/>
            <stop offset="100%" stop-color="#53d5fd"/>
            </radialGradient>
            <radialGradient id="Oxygen" cx="-50%" cy="-50%" r="220%" fx="20%" fy="20%">
            <stop offset="0%" stop-color="#caf0fe"/>
            <stop offset="50%" stop-color="#e0edd4"/>
            <stop offset="100%" stop-color="#c0c0c0"/>
            </radialGradient>
            <radialGradient id="Carbon" cx="-50%" cy="-50%" r="220%" fx="20%" fy="20%">
            <stop offset="0%" stop-color="#232323"/>
            <stop offset="50%" stop-color="#929292"/>
            <stop offset="100%" stop-color="#d6d6d6"/>
            </radialGradient>
            <radialGradient id="Nitrogen" cx="-50%" cy="-50%" r="220%" fx="20%" fy="20%">
            <stop offset="0%" stop-color="#b1dd8c"/>
            <stop offset="50%" stop-color="#96d35f"/>
            <stop offset="100%" stop-color="#ebf38f"/>
            </radialGradient>
            <radialGradient id="Boron" cx="-50%" cy="-50%" r="220%" fx="20%" fy="20%">
            <stop offset="0%" stop-color="#7c2a00"/>
            <stop offset="50%" stop-color="#5c0700"/>
            <stop offset="100%" stop-color="#785700"/>
            </radialGradient> <polygon points="464.43,508.70 451.57,524.03 514.77,577.06 527.63,561.74" fill="green"/>
 <polygon points="448.15,514.63 467.85,518.10 482.17,436.86 462.48,433.38" fill="green"/>
 <polygon points="461.42,525.76 454.58,506.97 377.05,535.18 383.89,553.98" fill="green"/>
 <polygon points="517.78,560.00 524.62,578.79 602.14,550.57 595.30,531.78" fill="green"/>
 <polygon points="465.90,442.78 478.75,427.46 415.55,374.43 402.70,389.75" fill="green"/>
 <polygon points="374.04,552.24 386.90,536.92 323.70,483.89 310.84,499.21" fill="green"/>
 <polygon points="605.15,533.52 592.29,548.84 655.49,601.87 668.35,586.55" fill="green"/>
 <polygon points="588.87,539.44 608.57,542.91 622.89,461.67 603.20,458.19" fill="green"/>
 <polygon points="412.54,391.49 405.70,372.69 328.18,400.91 335.02,419.70" fill="green"/>
 <polygon points="658.50,584.81 665.34,603.61 742.87,575.39 736.03,556.60" fill="green"/>
 <polygon points="318.66,501.45 315.88,481.65 234.19,493.13 236.97,512.93" fill="green"/>
 <polygon points="192.47,421.69 206.36,436.08 265.70,378.77 251.81,364.38" fill="green"/>
 <polygon points="208.40,424.50 190.42,433.27 226.59,507.41 244.56,498.65" fill="green"/>
 <polygon points="263.45,362.75 254.06,380.41 326.90,419.13 336.29,401.47" fill="green"/>
 <polygon points="307.42,489.81 327.12,493.29 341.45,412.04 321.75,408.57" fill="green"/>
 <polygon points="464.43,508.70 451.57,524.03 514.77,577.06 527.63,561.74" fill="green"/>
 <polygon points="448.15,514.63 467.85,518.10 482.17,436.86 462.48,433.38" fill="green"/>
 <polygon points="461.42,525.76 454.58,506.97 377.05,535.18 383.89,553.98" fill="green"/>
 <polygon points="517.78,560.00 524.62,578.79 602.14,550.57 595.30,531.78" fill="green"/>
 <polygon points="465.90,442.78 478.75,427.46 415.55,374.43 402.70,389.75" fill="green"/>
 <polygon points="374.04,552.24 386.90,536.92 323.70,483.89 310.84,499.21" fill="green"/>
 <polygon points="605.15,533.52 592.29,548.84 655.49,601.87 668.35,586.55" fill="green"/>
 <polygon points="588.87,539.44 608.57,542.91 622.89,461.67 603.20,458.19" fill="green"/>
 <polygon points="412.54,391.49 405.70,372.69 328.18,400.91 335.02,419.70" fill="green"/>
 <polygon points="658.50,584.81 665.34,603.61 742.87,575.39 736.03,556.60" fill="green"/>
 <polygon points="318.66,501.45 315.88,481.65 234.19,493.13 236.97,512.93" fill="green"/>
 <polygon points="192.47,421.69 206.36,436.08 265.70,378.77 251.81,364.38" fill="green"/>
 <polygon points="208.40,424.50 190.42,433.27 226.59,507.41 244.56,498.65" fill="green"/>
 <polygon points="263.45,362.75 254.06,380.41 326.90,419.13 336.29,401.47" fill="green"/>
 <polygon points="307.42,489.81 327.12,493.29 341.45,412.04 321.75,408.57" fill="green"/>
 <circle cx="458.00" cy="516.37" r="25" fill="url(#Carbon)"/>
 <circle cx="521.20" cy="569.40" r="25" fill="url(#Carbon)"/>
 <circle cx="472.33" cy="435.12" r="25" fill="url(#Carbon)"/>
 <circle cx="380.47" cy="544.58" r="25" fill="url(#Carbon)"/>
 <circle cx="598.72" cy="541.18" r="25" fill="url(#Carbon)"/>
 <circle cx="409.12" cy="382.09" r="25" fill="url(#Carbon)"/>
 <circle cx="661.92" cy="594.21" r="22" fill="url(#Nitrogen)"/>
 <circle cx="613.05" cy="459.93" r="25" fill="url(#Carbon)"/>
 <circle cx="739.45" cy="565.99" r="25" fill="url(#Carbon)"/>
 <circle cx="317.27" cy="491.55" r="25" fill="url(#Carbon)"/>
 <circle cx="199.41" cy="428.88" r="25" fill="url(#Carbon)"/>
 <circle cx="331.60" cy="410.30" r="25" fill="url(#Carbon)"/>
 <circle cx="235.58" cy="503.03" r="30" fill="url(#Oxygen)"/>
 <circle cx="258.76" cy="371.58" r="30" fill="url(#Oxygen)"/>
 <circle cx="458.00" cy="516.37" r="25" fill="url(#Carbon)"/>
 <circle cx="521.20" cy="569.40" r="25" fill="url(#Carbon)"/>
 <circle cx="472.33" cy="435.12" r="25" fill="url(#Carbon)"/>
 <circle cx="380.47" cy="544.58" r="25" fill="url(#Carbon)"/>
 <circle cx="598.72" cy="541.18" r="25" fill="url(#Carbon)"/>
 <circle cx="409.12" cy="382.09" r="25" fill="url(#Carbon)"/>
 <circle cx="661.92" cy="594.21" r="22" fill="url(#Nitrogen)"/>
 <circle cx="613.05" cy="459.93" r="25" fill="url(#Carbon)"/>
 <circle cx="739.45" cy="565.99" r="25" fill="url(#Carbon)"/>
 <circle cx="317.27" cy="491.55" r="25" fill="url(#Carbon)"/>
 <circle cx="199.41" cy="428.88" r="25" fill="url(#Carbon)"/>
 <circle cx="331.60" cy="410.30" r="25" fill="url(#Carbon)"/>
 <circle cx="235.58" cy="503.03" r="30" fill="url(#Oxygen)"/>
 <circle cx="258.76" cy="371.58" r="30" fill="url(#Oxygen)"/>
</svg>