<svg version="1.1" width="1000" height="1000" 
                    xmlns="http://www.w3.org/2000/svg">
            <radialGradient id="Hydrogen" cx="-50%" cy="-50%" r="220%" fx="20%" fy="20%">
            <stop offset="0%" stop-color="#006d8f"/>
            <stop offset="50%" stop-color="#0056d6"/>
            <stop offset="100%" stop-color="#53d5fd"/>
            </radialGradient>
            <radialGradient id="Oxygen" cx="-50%" cy="-50%" r="220%" fx="20%" fy="20%">
            <stop offset="0%" stop-color="#caf0fe"/>
            <stop offset="50%" stop-color="#e0edd4"/>
            <stop offset="100%" stop-color="#c0c0c0"/>
            </radialGradient>
            <radialGradient id="Carbon" cx="-50%" cy="-50%" r="220%" fx="20%" fy="20%">
            <stop offset="0%" stop-color="#232323"/>
            <stop offset="50%" stop-color="#929292"/>
            <stop offset="100%" stop-color="#d6d6d6"/>
            </radialGradient>
            <radialGradient id="Nitrogen" cx="-50%" cy="-50%" r="220%" fx="20%" fy="20%">
            <stop offset="0%" stop-color="#b1dd8c"/>
            <stop offset="50%" stop-color="#96d35f"/>
            <stop offset="100%" stop-color="#ebf38f"/>
            </radialGradient>
            <radialGradient id="Boron" cx="-50%" cy="-50%" r="220%" fx="20%" fy="20%">
            <stop offset="0%" stop-color="#7c2a00"/>
            <stop offset="50%" stop-color="#5c0700"/>
            <stop offset="100%" stop-color="#785700"/>
            </radialGradient> <circle cx="714.23" cy="327.45" r="40" fill="url(#Hydrogen)"/>
 <circle cx="835.65" cy="820.74" r="40" fill="url(#Hydrogen)"/>
 <polygon points="690.30,355.85 708.50,364.15 723.33,331.60 705.13,323.31" fill="green"/>
 <circle cx="691.93" cy="925.75" r="40" fill="url(#Hydrogen)"/>
 <circle cx="208.30" cy="494.31" r="40" fill="url(#Hydrogen)"/>
 <circle cx="107.02" cy="640.68" r="40" fill="url(#Hydrogen)"/>
 <polygon points="740.51,834.15 745.35,853.56 838.07,830.44 833.23,811.04" fill="green"/>
 <polygon points="751.42,849.14 734.44,838.57 683.44,920.47 700.42,931.04" fill="green"/>
 <polygon points="178.06,585.84 197.60,590.11 218.07,496.45 198.54,492.18" fill="green"/>
 <polygon points="193.30,596.35 182.37,579.60 101.55,632.30 112.48,649.05" fill="green"/>
 <circle cx="832.12" cy="591.30" r="30" fill="url(#Oxygen)"/>
 <polygon points="710.13,592.52 711.96,612.43 833.04,601.26 831.20,581.35" fill="green"/>
 <circle cx="742.93" cy="843.85" r="25" fill="url(#Carbon)"/>
 <circle cx="711.05" cy="602.47" r="25" fill="url(#Carbon)"/>
 <circle cx="699.40" cy="360.00" r="25" fill="url(#Carbon)"/>
 <polygon points="664.58,719.67 648.43,731.47 734.86,849.75 751.01,837.95" fill="green"/>
 <polygon points="647.36,721.51 665.65,729.62 720.19,606.52 701.90,598.42" fill="green"/>
 <polygon points="643.28,485.96 626.79,497.27 702.80,608.13 719.29,596.82" fill="green"/>
 <polygon points="626.05,487.22 644.02,496.01 708.38,364.40 690.41,355.61" fill="green"/>
 <circle cx="656.51" cy="725.57" r="22" fill="url(#Nitrogen)"/>
 <circle cx="635.04" cy="491.61" r="22" fill="url(#Nitrogen)"/>
 <polygon points="517.70,730.60 519.86,750.49 657.59,735.51 655.42,715.62" fill="green"/>
 <polygon points="499.76,489.74 500.96,509.70 635.64,501.59 634.44,481.63" fill="green"/>
 <circle cx="500.36" cy="499.72" r="25" fill="url(#Carbon)"/>
 <circle cx="518.78" cy="740.54" r="25" fill="url(#Carbon)"/>
 <polygon points="492.06,505.29 508.67,494.15 440.85,392.98 424.24,404.12" fill="green"/>
 <polygon points="429.97,622.47 447.98,631.17 509.37,504.07 491.36,495.37" fill="green"/>
 <polygon points="447.16,621.08 430.79,632.57 510.60,746.29 526.97,734.80" fill="green"/>
 <polygon points="526.69,746.66 510.87,734.43 429.21,840.09 445.03,852.32" fill="green"/>
 <circle cx="432.55" cy="398.55" r="30" fill="url(#Oxygen)"/>
 <circle cx="438.98" cy="626.82" r="25" fill="url(#Carbon)"/>
 <circle cx="437.12" cy="846.20" r="22" fill="url(#Nitrogen)"/>
 <polygon points="442.20,636.29 435.75,617.36 305.07,661.87 311.52,680.80" fill="green"/>
 <polygon points="434.05,855.72 440.19,836.68 315.66,796.49 309.52,815.52" fill="green"/>
 <circle cx="308.30" cy="671.34" r="22" fill="url(#Nitrogen)"/>
 <polygon points="302.61,679.56 313.99,663.11 193.52,579.75 182.14,596.20" fill="green"/>
 <polygon points="318.29,671.02 298.30,671.65 302.59,806.32 322.58,805.69" fill="green"/>
 <circle cx="187.83" cy="587.97" r="25" fill="url(#Carbon)"/>
 <circle cx="312.59" cy="806.01" r="25" fill="url(#Carbon)"/>
 <polygon points="318.60,814.00 306.57,798.02 220.29,862.95 232.31,878.93" fill="green"/>
 <circle cx="226.30" cy="870.94" r="40" fill="url(#Hydrogen)"/>
 <polygon points="700.06,350.02 698.73,369.98 795.20,376.40 796.53,356.44" fill="green"/>
 <polygon points="691.90,366.62 706.89,353.38 643.46,281.60 628.48,294.84" fill="green"/>
 <circle cx="795.86" cy="366.42" r="40" fill="url(#Hydrogen)"/>
 <polygon points="750.85,837.74 735.02,849.97 757.60,879.20 773.43,866.97" fill="green"/>
 <circle cx="635.97" cy="288.22" r="40" fill="url(#Hydrogen)"/>
 <polygon points="181.99,596.09 193.67,579.86 164.38,558.79 152.70,575.02" fill="green"/>
 <circle cx="765.51" cy="873.09" r="40" fill="url(#Hydrogen)"/>
 <circle cx="158.54" cy="566.90" r="40" fill="url(#Hydrogen)"/>
</svg>